<?xml version="1.0" encoding="UTF-8" standalone="no"?>
<!DOCTYPE svg PUBLIC "-//W3C//DTD SVG 1.1//EN"
 "http://www.w3.org/Graphics/SVG/1.1/DTD/svg11.dtd">
<!-- Generated by graphviz version 2.43.0 (0)
 -->
<!-- Title: %3 Pages: 1 -->
<svg width="876pt" height="231pt"
 viewBox="0.00 0.00 875.86 231.00" xmlns="http://www.w3.org/2000/svg" xmlns:xlink="http://www.w3.org/1999/xlink">
<g id="graph0" class="graph" transform="scale(1 1) rotate(0) translate(4 227)">
<title>%3</title>
<polygon fill="#333333" stroke="transparent" points="-4,4 -4,-227 871.86,-227 871.86,4 -4,4"/>
<text text-anchor="middle" x="433.93" y="-9.2" font-family="Times,serif" font-size="16.00" fill="white">Network Map</text>
<!-- R3 -->
<g id="node1" class="node">
<title>R3</title>
<polygon fill="#006699" stroke="#006699" points="207.36,-99 130.36,-99 130.36,-26 207.36,-26 207.36,-99"/>
<text text-anchor="middle" x="168.86" y="-58.8" font-family="Helvetica,sans-Serif" font-size="14.00" fill="white">R3</text>
</g>
<!-- R5 -->
<g id="node3" class="node">
<title>R5</title>
<polygon fill="#006699" stroke="#006699" points="84.36,-223 7.36,-223 7.36,-150 84.36,-150 84.36,-223"/>
<text text-anchor="middle" x="45.86" y="-182.8" font-family="Helvetica,sans-Serif" font-size="14.00" fill="white">R5</text>
</g>
<!-- R3&#45;&#45;R5 -->
<g id="edge7" class="edge">
<title>R3&#45;&#45;R5</title>
<path fill="none" stroke="green" stroke-dasharray="5,2" d="M130.19,-74.74C108.08,-83.05 81.52,-96.53 64.86,-117 57.3,-126.28 52.75,-138.37 50,-149.8"/>
<text text-anchor="middle" x="114.86" y="-120.8" font-family="Courier,monospace" font-size="14.00" fill="white"> &#160;&#160;&#160;&#160;&#160;&#160;&#160;&#160;&#160;&#160;&#160;</text>
<text text-anchor="middle" x="25" y="-138.6" font-family="Courier,monospace" font-size="14.00" fill="white">Eth0/0</text>
<text text-anchor="middle" x="105.19" y="-63.54" font-family="Courier,monospace" font-size="14.00" fill="white">Eth0/2</text>
</g>
<!-- SW1 -->
<g id="node4" class="node">
<title>SW1</title>
<polygon fill="#006699" stroke="#006699" points="520.86,-223 430.86,-223 430.86,-150 520.86,-150 520.86,-223"/>
<text text-anchor="middle" x="475.86" y="-182.8" font-family="Helvetica,sans-Serif" font-size="14.00" fill="white">SW1</text>
</g>
<!-- R3&#45;&#45;SW1 -->
<g id="edge3" class="edge">
<title>R3&#45;&#45;SW1</title>
<path fill="none" stroke="green" stroke-dasharray="5,2" d="M207.38,-84.63C234.66,-99.08 272.39,-118.08 306.86,-132 347.96,-148.59 396.29,-163.44 430.72,-173.27"/>
<text text-anchor="middle" x="356.86" y="-120.8" font-family="Courier,monospace" font-size="14.00" fill="white"> &#160;&#160;&#160;&#160;&#160;&#160;&#160;&#160;&#160;&#160;&#160;</text>
<text text-anchor="middle" x="405.72" y="-162.07" font-family="Courier,monospace" font-size="14.00" fill="white">Eth0/3</text>
<text text-anchor="middle" x="232.38" y="-73.43" font-family="Courier,monospace" font-size="14.00" fill="white">Eth0/0</text>
</g>
<!-- R4 -->
<g id="node8" class="node">
<title>R4</title>
<polygon fill="#006699" stroke="#006699" points="207.36,-223 130.36,-223 130.36,-150 207.36,-150 207.36,-223"/>
<text text-anchor="middle" x="168.86" y="-182.8" font-family="Helvetica,sans-Serif" font-size="14.00" fill="white">R4</text>
</g>
<!-- R3&#45;&#45;R4 -->
<g id="edge6" class="edge">
<title>R3&#45;&#45;R4</title>
<path fill="none" stroke="green" stroke-dasharray="5,2" d="M168.86,-99.12C168.86,-115.01 168.86,-133.7 168.86,-149.63"/>
<text text-anchor="middle" x="218.86" y="-120.8" font-family="Courier,monospace" font-size="14.00" fill="white"> &#160;&#160;&#160;&#160;&#160;&#160;&#160;&#160;&#160;&#160;&#160;</text>
<text text-anchor="middle" x="143.86" y="-138.43" font-family="Courier,monospace" font-size="14.00" fill="white">Eth0/0</text>
<text text-anchor="middle" x="143.86" y="-102.92" font-family="Courier,monospace" font-size="14.00" fill="white">Eth0/1</text>
</g>
<!-- R1 -->
<g id="node2" class="node">
<title>R1</title>
<polygon fill="#006699" stroke="#006699" points="453.36,-99 376.36,-99 376.36,-26 453.36,-26 453.36,-99"/>
<text text-anchor="middle" x="414.86" y="-58.8" font-family="Helvetica,sans-Serif" font-size="14.00" fill="white">R1</text>
</g>
<!-- R1&#45;&#45;SW1 -->
<g id="edge1" class="edge">
<title>R1&#45;&#45;SW1</title>
<path fill="none" stroke="green" stroke-dasharray="5,2" d="M409.97,-99.21C409.88,-110.15 411.26,-121.94 415.86,-132 419.4,-139.74 424.66,-146.83 430.62,-153.14"/>
<text text-anchor="middle" x="465.86" y="-120.8" font-family="Courier,monospace" font-size="14.00" fill="white"> &#160;&#160;&#160;&#160;&#160;&#160;&#160;&#160;&#160;&#160;&#160;</text>
<text text-anchor="middle" x="405.62" y="-141.94" font-family="Courier,monospace" font-size="14.00" fill="white">Eth0/1</text>
<text text-anchor="middle" x="384.97" y="-103.01" font-family="Courier,monospace" font-size="14.00" fill="white">Eth0/0</text>
</g>
<!-- R6 -->
<g id="node5" class="node">
<title>R6</title>
<polygon fill="#006699" stroke="#006699" points="576.36,-99 499.36,-99 499.36,-26 576.36,-26 576.36,-99"/>
<text text-anchor="middle" x="537.86" y="-58.8" font-family="Helvetica,sans-Serif" font-size="14.00" fill="white">R6</text>
</g>
<!-- R6&#45;&#45;SW1 -->
<g id="edge4" class="edge">
<title>R6&#45;&#45;SW1</title>
<path fill="none" stroke="green" stroke-dasharray="5,2" d="M528.83,-99.25C525.45,-110.07 521.13,-121.79 515.86,-132 512.78,-137.98 509.04,-143.99 505.1,-149.72"/>
<text text-anchor="middle" x="571.86" y="-120.8" font-family="Courier,monospace" font-size="14.00" fill="white"> &#160;&#160;&#160;&#160;&#160;&#160;&#160;&#160;&#160;&#160;&#160;</text>
<text text-anchor="middle" x="480.1" y="-138.52" font-family="Courier,monospace" font-size="14.00" fill="white">Eth0/5</text>
<text text-anchor="middle" x="503.83" y="-103.05" font-family="Courier,monospace" font-size="14.00" fill="white">Eth0/1</text>
</g>
<!-- R2 -->
<g id="node6" class="node">
<title>R2</title>
<polygon fill="#006699" stroke="#006699" points="760.36,-99 683.36,-99 683.36,-26 760.36,-26 760.36,-99"/>
<text text-anchor="middle" x="721.86" y="-58.8" font-family="Helvetica,sans-Serif" font-size="14.00" fill="white">R2</text>
</g>
<!-- R2&#45;&#45;SW1 -->
<g id="edge2" class="edge">
<title>R2&#45;&#45;SW1</title>
<path fill="none" stroke="green" stroke-dasharray="5,2" d="M683.28,-94.76C666.36,-107.46 645.83,-121.58 625.86,-132 592.16,-149.6 551.39,-163.72 520.86,-173.03"/>
<text text-anchor="middle" x="700.86" y="-120.8" font-family="Courier,monospace" font-size="14.00" fill="white"> &#160;&#160;&#160;&#160;&#160;&#160;&#160;&#160;&#160;&#160;&#160;</text>
<text text-anchor="middle" x="545.86" y="-161.83" font-family="Courier,monospace" font-size="14.00" fill="white">Eth0/2</text>
<text text-anchor="middle" x="658.28" y="-83.56" font-family="Courier,monospace" font-size="14.00" fill="white">Eth0/0</text>
</g>
<!-- SW2 -->
<g id="node7" class="node">
<title>SW2</title>
<polygon fill="#006699" stroke="#006699" points="828.86,-223 738.86,-223 738.86,-150 828.86,-150 828.86,-223"/>
<text text-anchor="middle" x="783.86" y="-182.8" font-family="Helvetica,sans-Serif" font-size="14.00" fill="white">SW2</text>
</g>
<!-- R2&#45;&#45;SW2 -->
<g id="edge5" class="edge">
<title>R2&#45;&#45;SW2</title>
<path fill="none" stroke="green" stroke-dasharray="5,2" d="M751.1,-99.28C755.04,-105.01 758.78,-111.02 761.86,-117 767.13,-127.21 771.45,-138.93 774.83,-149.75"/>
<text text-anchor="middle" x="817.86" y="-120.8" font-family="Courier,monospace" font-size="14.00" fill="white"> &#160;&#160;&#160;&#160;&#160;&#160;&#160;&#160;&#160;&#160;&#160;</text>
<text text-anchor="middle" x="745.83" y="-138.55" font-family="Courier,monospace" font-size="14.00" fill="white">Eth0/11</text>
<text text-anchor="middle" x="726.1" y="-103.08" font-family="Courier,monospace" font-size="14.00" fill="white">Eth0/1</text>
</g>
</g>
</svg>
